{
  "source": "C:\\Users\\Peter\\Desktop\\stuff\\MIUN\\quantitative_research\\video_compression\\videos\\BVI-HD\\BVI-HD_CDVL_videos\\ORIG\\Grass_1920x1080_60fps.mp4",
  "output": "C:\\Users\\Peter\\Desktop\\stuff\\MIUN\\quantitative_research\\video_compression\\compressed_videos\\BVI-HD\\vp9\\1.5\\Grass_1920x1080_60fps_vp9.webm",
  "codec": "vp9",
  "ok": "Input #0, mov,mp4,m4a,3gp,3g2,mj2, from 'C:\\Users\\Peter\\Desktop\\stuff\\MIUN\\quantitative_research\\video_compression\\videos\\BVI-HD\\BVI-HD_CDVL_videos\\ORIG\\Grass_1920x1080_60fps.mp4':\n  Metadata:\n    major_brand     : isom\n    minor_version   : 512\n    compatible_brands: isomiso2avc1mp41\n    encoder         : Lavf54.28.101\n  Duration: 00:00:05.00, start: 0.000000, bitrate: 655968 kb/s\n  Stream #0:0[0x1](und): Video: h264 (High 4:4:4 Predictive) (avc1 / 0x31637661), yuv420p(progressive), 1920x1080, 655963 kb/s, 60 fps, 60 tbr, 60 tbn (default)\n    Metadata:\n      handler_name    : VideoHandler\n      vendor_id       : [0][0][0][0]\n[out#0/webm @ 000001f1dd9a9840] Codec AVOption b:a (set bitrate (in bits/s)) has not been used for any stream. The most likely reason is either wrong type (e.g. a video option with no video streams) or that it is a private option of some decoder which was not actually used for any stream.\nStream mapping:\n  Stream #0:0 -> #0:0 (h264 (native) -> vp9 (libvpx-vp9))\nPress [q] to stop, [?] for help\n[libvpx-vp9 @ 000001f1de7af1c0] v1.15.2-100-g40561f514\nOutput #0, webm, to 'C:\\Users\\Peter\\Desktop\\stuff\\MIUN\\quantitative_research\\video_compression\\compressed_videos\\BVI-HD\\vp9\\1.5\\Grass_1920x1080_60fps_vp9.webm':\n  Metadata:\n    major_brand     : isom\n    minor_version   : 512\n    compatible_brands: isomiso2avc1mp41\n    encoder         : Lavf62.3.100\n  Stream #0:0(und): Video: vp9, yuv420p(tv, progressive), 1920x1080, q=2-31, 1500 kb/s, 60 fps, 1k tbn (default)\n    Metadata:\n      encoder         : Lavc62.11.100 libvpx-vp9\n      handler_name    : VideoHandler\n      vendor_id       : [0][0][0][0]\n    Side data:\n      cpb: bitrate max/min/avg: 0/0/0 buffer size: 1500000 vbv_delay: N/A\nframe=    0 fps=0.0 q=0.0 size=       0KiB time=N/A bitrate=N/A speed=N/A elapsed=0:00:00.53    \nframe=    0 fps=0.0 q=0.0 size=       0KiB time=N/A bitrate=N/A speed=N/A elapsed=0:00:01.09    \nframe=    6 fps=3.7 q=62.0 size=       1KiB time=00:00:00.10 bitrate=  50.6kbits/s speed=0.0617x elapsed=0:00:01.62    \nframe=   11 fps=5.1 q=51.0 size=       1KiB time=00:00:00.16 bitrate=  30.4kbits/s speed=0.0777x elapsed=0:00:02.14    \nframe=   15 fps=5.6 q=63.0 size=       1KiB time=00:00:00.25 bitrate=  20.3kbits/s speed=0.0935x elapsed=0:00:02.67    \nframe=   19 fps=5.9 q=63.0 size=       1KiB time=00:00:00.31 bitrate=  16.0kbits/s speed=0.0989x elapsed=0:00:03.20    \nframe=   23 fps=6.1 q=63.0 size=       1KiB time=00:00:00.38 bitrate=  13.2kbits/s speed=0.102x elapsed=0:00:03.75    \nframe=   26 fps=6.1 q=63.0 size=       1KiB time=00:00:00.43 bitrate=  11.7kbits/s speed=0.101x elapsed=0:00:04.27    \nframe=   31 fps=6.4 q=55.0 size=       1KiB time=00:00:00.51 bitrate=   9.8kbits/s speed=0.107x elapsed=0:00:04.81    \nframe=   35 fps=6.5 q=52.0 size=       1KiB time=00:00:00.58 bitrate=   8.7kbits/s speed=0.109x elapsed=0:00:05.35    \nframe=   38 fps=6.5 q=52.0 size=       1KiB time=00:00:00.63 bitrate=   8.0kbits/s speed=0.108x elapsed=0:00:05.87    \nframe=   44 fps=6.9 q=63.0 size=       1KiB time=00:00:00.73 bitrate=   6.9kbits/s speed=0.114x elapsed=0:00:06.40    \nframe=   48 fps=6.9 q=63.0 size=       1KiB time=00:00:00.80 bitrate=   6.3kbits/s speed=0.115x elapsed=0:00:06.95    \nframe=   52 fps=6.9 q=59.0 size=       1KiB time=00:00:00.86 bitrate=   5.8kbits/s speed=0.116x elapsed=0:00:07.49    \nframe=   56 fps=6.9 q=63.0 size=       1KiB time=00:00:00.93 bitrate=   5.4kbits/s speed=0.116x elapsed=0:00:08.06    \nframe=   60 fps=7.0 q=63.0 size=       1KiB time=00:00:01.00 bitrate=   5.1kbits/s speed=0.116x elapsed=0:00:08.58    \nframe=   64 fps=7.0 q=59.0 size=       1KiB time=00:00:01.06 bitrate=   4.7kbits/s speed=0.117x elapsed=0:00:09.13    \nframe=   68 fps=7.0 q=63.0 size=       1KiB time=00:00:01.13 bitrate=   4.5kbits/s speed=0.117x elapsed=0:00:09.65    \nframe=   72 fps=7.1 q=63.0 size=       1KiB time=00:00:01.20 bitrate=   4.2kbits/s speed=0.118x elapsed=0:00:10.15    \nframe=   76 fps=7.1 q=59.0 size=       1KiB time=00:00:01.26 bitrate=   4.0kbits/s speed=0.119x elapsed=0:00:10.67    \nframe=   82 fps=7.3 q=63.0 size=       1KiB time=00:00:01.36 bitrate=   3.7kbits/s speed=0.122x elapsed=0:00:11.20    \nframe=   85 fps=7.2 q=46.0 size=       1KiB time=00:00:01.41 bitrate=   3.6kbits/s speed=0.12x elapsed=0:00:11.76    \nframe=   89 fps=7.2 q=53.0 size=       1KiB time=00:00:01.48 bitrate=   3.4kbits/s speed=0.121x elapsed=0:00:12.30    \nframe=   94 fps=7.3 q=63.0 size=       1KiB time=00:00:01.56 bitrate=   3.2kbits/s speed=0.122x elapsed=0:00:12.82    \nframe=   97 fps=7.3 q=45.0 size=       1KiB time=00:00:01.61 bitrate=   3.1kbits/s speed=0.121x elapsed=0:00:13.37    \nframe=  102 fps=7.3 q=60.0 size=       1KiB time=00:00:01.70 bitrate=   3.0kbits/s speed=0.122x elapsed=0:00:13.90    \nframe=  106 fps=7.3 q=63.0 size=       1KiB time=00:00:01.76 bitrate=   2.9kbits/s speed=0.122x elapsed=0:00:14.45    \nframe=  110 fps=7.3 q=51.0 size=       1KiB time=00:00:01.83 bitrate=   2.8kbits/s speed=0.122x elapsed=0:00:15.00    \nframe=  114 fps=7.3 q=61.0 size=       1KiB time=00:00:01.90 bitrate=   2.7kbits/s speed=0.122x elapsed=0:00:15.55    \nframe=  118 fps=7.3 q=63.0 size=       1KiB time=00:00:01.96 bitrate=   2.6kbits/s speed=0.122x elapsed=0:00:16.08    \nframe=  123 fps=7.4 q=52.0 size=       1KiB time=00:00:02.05 bitrate=   2.5kbits/s speed=0.123x elapsed=0:00:16.61    \nframe=  128 fps=7.5 q=63.0 size=       1KiB time=00:00:02.13 bitrate=   2.4kbits/s speed=0.125x elapsed=0:00:17.13    \nframe=  130 fps=7.3 q=51.0 size=     512KiB time=00:00:02.16 bitrate=1935.8kbits/s speed=0.122x elapsed=0:00:17.70    \nframe=  134 fps=7.3 q=62.0 size=     512KiB time=00:00:02.23 bitrate=1878.0kbits/s speed=0.122x elapsed=0:00:18.25    \nframe=  139 fps=7.4 q=52.0 size=     512KiB time=00:00:02.31 bitrate=1810.5kbits/s speed=0.123x elapsed=0:00:18.77    \nframe=  142 fps=7.3 q=52.0 size=     512KiB time=00:00:02.36 bitrate=1772.2kbits/s speed=0.122x elapsed=0:00:19.34    \nframe=  147 fps=7.4 q=59.0 size=     512KiB time=00:00:02.45 bitrate=1712.0kbits/s speed=0.123x elapsed=0:00:19.87    \nframe=  151 fps=7.4 q=63.0 size=     512KiB time=00:00:02.51 bitrate=1666.6kbits/s speed=0.123x elapsed=0:00:20.40    \nframe=  154 fps=7.4 q=50.0 size=     512KiB time=00:00:02.56 bitrate=1634.1kbits/s speed=0.123x elapsed=0:00:20.92    \nframe=  159 fps=7.4 q=63.0 size=     512KiB time=00:00:02.65 bitrate=1582.8kbits/s speed=0.123x elapsed=0:00:21.47    \nframe=  163 fps=7.4 q=63.0 size=     512KiB time=00:00:02.71 bitrate=1543.9kbits/s speed=0.123x elapsed=0:00:22.00    \nframe=  165 fps=7.3 q=51.0 size=     512KiB time=00:00:02.75 bitrate=1525.2kbits/s speed=0.122x elapsed=0:00:22.53    \nframe=  169 fps=7.3 q=59.0 size=     512KiB time=00:00:02.81 bitrate=1489.1kbits/s speed=0.122x elapsed=0:00:23.07    \nframe=  173 fps=7.3 q=63.0 size=     512KiB time=00:00:02.88 bitrate=1454.7kbits/s speed=0.122x elapsed=0:00:23.61    \nframe=  176 fps=7.3 q=45.0 size=     512KiB time=00:00:02.93 bitrate=1429.9kbits/s speed=0.122x elapsed=0:00:24.14    \nframe=  181 fps=7.3 q=59.0 size=     512KiB time=00:00:03.01 bitrate=1390.4kbits/s speed=0.122x elapsed=0:00:24.66    \nframe=  185 fps=7.3 q=63.0 size=     512KiB time=00:00:03.08 bitrate=1360.3kbits/s speed=0.122x elapsed=0:00:25.21    \nframe=  188 fps=7.3 q=45.0 size=     512KiB time=00:00:03.13 bitrate=1338.6kbits/s speed=0.122x elapsed=0:00:25.72    \nframe=  192 fps=7.3 q=53.0 size=     512KiB time=00:00:03.20 bitrate=1310.7kbits/s speed=0.122x elapsed=0:00:26.24    \nframe=  197 fps=7.4 q=63.0 size=     512KiB time=00:00:03.28 bitrate=1277.5kbits/s speed=0.123x elapsed=0:00:26.76    \nframe=  200 fps=7.3 q=45.0 size=     512KiB time=00:00:03.33 bitrate=1258.3kbits/s speed=0.122x elapsed=0:00:27.29    \nframe=  204 fps=7.3 q=53.0 size=     512KiB time=00:00:03.40 bitrate=1233.6kbits/s speed=0.122x elapsed=0:00:27.82    \nframe=  209 fps=7.4 q=61.0 size=     512KiB time=00:00:03.48 bitrate=1204.1kbits/s speed=0.123x elapsed=0:00:28.37    \nframe=  212 fps=7.3 q=45.0 size=     512KiB time=00:00:03.53 bitrate=1187.1kbits/s speed=0.122x elapsed=0:00:28.92    \nframe=  216 fps=7.3 q=54.0 size=     512KiB time=00:00:03.60 bitrate=1165.1kbits/s speed=0.122x elapsed=0:00:29.43    \nframe=  221 fps=7.4 q=63.0 size=     512KiB time=00:00:03.68 bitrate=1138.7kbits/s speed=0.123x elapsed=0:00:29.95    \nframe=  225 fps=7.4 q=51.0 size=     512KiB time=00:00:03.75 bitrate=1118.5kbits/s speed=0.123x elapsed=0:00:30.49    \nframe=  229 fps=7.4 q=57.0 size=     512KiB time=00:00:03.81 bitrate=1098.9kbits/s speed=0.123x elapsed=0:00:31.04    \nframe=  233 fps=7.4 q=63.0 size=     512KiB time=00:00:03.88 bitrate=1080.1kbits/s speed=0.123x elapsed=0:00:31.56    \nframe=  237 fps=7.4 q=53.0 size=     512KiB time=00:00:03.95 bitrate=1061.8kbits/s speed=0.123x elapsed=0:00:32.11    \nframe=  241 fps=7.4 q=58.0 size=     512KiB time=00:00:04.01 bitrate=1044.2kbits/s speed=0.123x elapsed=0:00:32.66    \nframe=  245 fps=7.4 q=63.0 size=     512KiB time=00:00:04.08 bitrate=1027.2kbits/s speed=0.123x elapsed=0:00:33.19    \nframe=  248 fps=7.4 q=48.0 size=     512KiB time=00:00:04.13 bitrate=1014.8kbits/s speed=0.123x elapsed=0:00:33.72    \nframe=  253 fps=7.4 q=59.0 size=     512KiB time=00:00:04.21 bitrate= 994.7kbits/s speed=0.123x elapsed=0:00:34.23    \nframe=  256 fps=7.4 q=50.0 size=     512KiB time=00:00:04.26 bitrate= 983.0kbits/s speed=0.123x elapsed=0:00:34.77    \nframe=  260 fps=7.4 q=52.0 size=    1024KiB time=00:00:04.33 bitrate=1935.8kbits/s speed=0.123x elapsed=0:00:35.30    \nframe=  266 fps=7.4 q=57.0 size=    1024KiB time=00:00:04.43 bitrate=1892.2kbits/s speed=0.124x elapsed=0:00:35.82    \nframe=  269 fps=7.4 q=44.0 size=    1024KiB time=00:00:04.48 bitrate=1871.1kbits/s speed=0.123x elapsed=0:00:36.34    \nframe=  273 fps=7.4 q=51.0 size=    1024KiB time=00:00:04.55 bitrate=1843.7kbits/s speed=0.123x elapsed=0:00:36.86    \nframe=  276 fps=7.4 q=59.0 size=    1024KiB time=00:00:04.60 bitrate=1823.6kbits/s speed=0.123x elapsed=0:00:37.38    \nframe=  276 fps=7.3 q=59.0 size=    1024KiB time=00:00:04.60 bitrate=1823.6kbits/s speed=0.121x elapsed=0:00:37.93    \nframe=  276 fps=7.2 q=59.0 size=    1024KiB time=00:00:04.60 bitrate=1823.6kbits/s speed=0.12x elapsed=0:00:38.46    \nframe=  276 fps=7.1 q=59.0 size=    1024KiB time=00:00:04.60 bitrate=1823.6kbits/s speed=0.118x elapsed=0:00:38.99    \nframe=  276 fps=7.0 q=59.0 size=    1024KiB time=00:00:04.60 bitrate=1823.6kbits/s speed=0.116x elapsed=0:00:39.54    \nframe=  276 fps=6.9 q=59.0 size=    1024KiB time=00:00:04.60 bitrate=1823.6kbits/s speed=0.115x elapsed=0:00:40.09    \n[out#0/webm @ 000001f1dd9a9840] video:1473KiB audio:0KiB subtitle:0KiB other streams:0KiB global headers:0KiB muxing overhead: 0.188392%\nframe=  300 fps=7.4 q=56.0 Lsize=    1475KiB time=00:00:05.00 bitrate=2417.4kbits/s speed=0.124x elapsed=0:00:40.39    \n",
  "seconds": 40.736332416534424,
  "probe_out": {}
}